<svg id="Layer_1" data-name="Layer 1" xmlns="http://www.w3.org/2000/svg" viewBox="0 0 1281 770">
  <defs>
    <style>
      .cls-1 {
        fill: #fff;
      }

      .cls-2 {
        fill: #cf2c35;
      }

      .cls-3 {
        fill: #0044a3;
      }
    </style>
  </defs>
  <g>
    <rect class="cls-1" width="1281" height="770"/>
    <path class="cls-2" d="M828,476.75c.84-1.47,1.63-2.93,2.34-4.43a80.4,80.4,0,0,0,3.89-9,76,76,0,0,0,2.85-9.14,74.6,74.6,0,0,0,1.66-8.29l.23-1.75a35.12,35.12,0,0,0,.4-3.93c.16-1.56.26-3.11.27-4.66a40.36,40.36,0,0,0,0-4.26,12,12,0,0,0,0-1.31c0-1.07-.09-2.18-.2-3.31a5.5,5.5,0,0,0-.07-1.05c-.09-1.25-.21-2.52-.41-3.82a1.29,1.29,0,0,0,0-.33c-.16-1.29-.36-2.59-.58-3.86-.11-.46-.17-.89-.29-1.4-.17-1-.35-1.91-.6-2.84-.32-1.42-.67-2.8-1.08-4.16-.2-.77-.42-1.51-.67-2.27a18.39,18.39,0,0,0-.7-2.14,24.75,24.75,0,0,0-.89-2.46c-.19-.55-.38-1.09-.6-1.6-.29-.78-.61-1.52-.92-2.26-.46-1.13-.94-2.23-1.48-3.31a1,1,0,0,0-.16-.3q-.76-1.67-1.62-3.24c-1-1.83-2-3.61-3-5.36-.6-1-1.24-2-1.9-2.95-1.13-1.7-2.31-3.33-3.54-4.95-.59-.84-1.27-1.64-1.94-2.43-.32-.43-.67-.88-1-1.3-.94-1.16-2-2.28-3-3.39s-2-2.14-3.06-3.15c-.14-.16-.32-.34-.54-.55-1-1-2-1.95-3.15-2.93a105.56,105.56,0,0,0-21.81-15C735.25,323,670,338.81,640.5,384.86s-94.75,61.81-145.82,35.23a105.6,105.6,0,0,1-21.81-15c-1.06-.95-2.14-2-3.15-2.93l-.54-.55c-1.06-1-2.08-2.06-3.06-3.15s-2-2.24-3-3.38c-.37-.42-.72-.87-1-1.3-.67-.8-1.33-1.63-1.94-2.44-1.23-1.62-2.41-3.25-3.5-4.93-.66-1-1.3-2-1.94-3-1.09-1.76-2.12-3.54-3-5.35-.6-1.07-1.14-2.15-1.62-3.25a.63.63,0,0,1-.16-.3c-.54-1.08-1-2.18-1.48-3.3-.31-.75-.63-1.49-.92-2.26a15.9,15.9,0,0,1-.62-1.57c-.31-.83-.62-1.66-.87-2.5a88.71,88.71,0,0,1-2.45-8.56c-.25-.93-.41-1.91-.6-2.85-.1-.45-.2-.91-.29-1.39-.22-1.28-.42-2.58-.58-3.86a1.4,1.4,0,0,1,0-.33c-.18-1.26-.34-2.54-.41-3.82a5.55,5.55,0,0,1-.07-1.06c-.11-1.12-.15-2.21-.2-3.3a9.66,9.66,0,0,1,0-1.32c0-1.43,0-2.86,0-4.26.07-1.56.13-3.13.27-4.66.09-1.28.23-2.59.4-3.92.08-.59.15-1.17.23-1.75.43-2.75,1-5.54,1.66-8.29a84.74,84.74,0,0,1,2.85-9.15,82.56,82.56,0,0,1,3.89-9c.75-1.47,1.52-3,2.34-4.42s1.73-2.93,2.64-4.36,1.88-2.85,2.87-4.25c60.22-88.72,188.27-118.53,288.78-66.21S883.15,385.36,828,476.75Z"/>
    <g>
      <path class="cls-1" d="M489.53,248.74c-1.3,1.17-2.52,2.39-3.78,3.59Q487.58,250.5,489.53,248.74Z"/>
      <path d="M489.53,248.74q-1.95,1.75-3.78,3.59c1.26-1.2,2.48-2.42,3.78-3.59Z"/>
    </g>
    <path class="cls-3" d="M825.4,481.11c-.92,1.43-1.88,2.85-2.87,4.24-60.22,88.73-188.27,118.54-288.78,66.22S397.85,384.35,453,293c-.84,1.47-1.63,2.93-2.34,4.42a82,82,0,0,0-3.89,9,75.54,75.54,0,0,0-2.85,9.15,74.14,74.14,0,0,0-1.66,8.29c-.08.58-.15,1.16-.23,1.75a35,35,0,0,0-.4,3.92c-.16,1.57-.26,3.11-.27,4.66a40.37,40.37,0,0,0,0,4.26,9.66,9.66,0,0,0,0,1.32c0,1.07.09,2.18.2,3.3a5.55,5.55,0,0,0,.07,1.06c.09,1.25.21,2.51.41,3.82a1.4,1.4,0,0,0,0,.33c.16,1.28.36,2.58.58,3.86.09.48.19.94.29,1.39.17,1,.35,1.92.6,2.85a88.71,88.71,0,0,0,2.45,8.56c.25.84.56,1.67.87,2.5a15.9,15.9,0,0,0,.62,1.57c.29.77.61,1.51.92,2.26.46,1.12.94,2.22,1.48,3.3a.63.63,0,0,0,.16.3c.51,1.12,1,2.2,1.62,3.25.91,1.81,1.94,3.59,3,5.35.64,1,1.24,2,1.94,3,1.09,1.68,2.27,3.31,3.5,4.93.59.85,1.27,1.64,1.94,2.44.32.43.67.88,1,1.3.94,1.15,2,2.28,3,3.38s2,2.15,3.06,3.15l.54.55c1,1,2,2,3.15,2.93a105.6,105.6,0,0,0,21.81,15C545.75,446.67,611,430.9,640.5,384.86S735.25,323,786.32,349.63a105.56,105.56,0,0,1,21.81,15c1.06,1,2.14,2,3.15,2.93.22.21.4.39.54.55,1.06,1,2.08,2.06,3.06,3.15s2,2.25,3,3.39c.37.42.72.87,1,1.3.67.79,1.33,1.62,1.94,2.43,1.23,1.62,2.41,3.25,3.54,4.95.66,1,1.3,2,1.9,2.95,1.06,1.75,2.08,3.53,3,5.36.6,1.06,1.14,2.15,1.62,3.24a1,1,0,0,1,.16.3c.54,1.08,1,2.18,1.48,3.31.31.74.63,1.48.92,2.26.22.51.41,1.05.6,1.6a24.75,24.75,0,0,1,.89,2.46c.24.7.48,1.41.7,2.14s.47,1.5.67,2.27c.41,1.36.76,2.74,1.08,4.16.25.93.41,1.9.6,2.84.12.51.18.94.29,1.4.22,1.27.42,2.57.58,3.86a1.29,1.29,0,0,1,0,.33c.18,1.25.34,2.54.41,3.82a5.5,5.5,0,0,1,.07,1.05c.11,1.13.15,2.22.2,3.31a12,12,0,0,1,0,1.31c0,1.43,0,2.87,0,4.26-.07,1.57-.13,3.13-.27,4.66-.09,1.29-.23,2.59-.4,3.93l-.23,1.75c-.43,2.75-1,5.53-1.66,8.29a85.28,85.28,0,0,1-2.85,9.14,81.72,81.72,0,0,1-3.89,9c-.75,1.48-1.52,3-2.34,4.43S826.31,479.67,825.4,481.11Z"/>
    <g>
      <polygon points="448.03 153.63 329.6 313.8 300.01 296.01 418.44 135.84 448.03 153.63"/>
      <polygon points="403.74 126.76 285.32 286.93 255.72 269.14 374.15 108.97 403.74 126.76"/>
      <polygon points="359.37 100.07 240.94 260.24 211.35 242.45 329.78 82.28 359.37 100.07"/>
    </g>
    <polygon points="877.44 126.9 995.87 287.07 1025.46 269.28 907.03 109.11 877.44 126.9"/>
    <polygon points="211.33 527.36 329.76 687.53 359.36 669.74 240.93 509.57 211.33 527.36"/>
    <g>
      <polygon points="285.22 482.7 255.62 500.49 310.03 574.07 339.62 556.28 285.22 482.7"/>
      <polygon points="319.89 587.41 374.05 660.65 403.64 642.87 349.49 569.62 319.89 587.41"/>
    </g>
    <g>
      <polygon points="862.74 135.99 833.14 153.78 887.55 227.36 917.15 209.57 862.74 135.99"/>
      <polygon points="897.42 240.71 951.57 313.95 981.17 296.16 927.01 222.92 897.42 240.71"/>
    </g>
    <g>
      <polygon points="951.4 82.41 921.8 100.2 976.21 173.78 1005.81 156 951.4 82.41"/>
      <polygon points="986.08 187.13 1040.23 260.37 1069.83 242.58 1015.67 169.34 986.08 187.13"/>
    </g>
    <g>
      <polygon points="1040.1 509.43 1069.69 527.22 1015.28 600.81 985.69 583.02 1040.1 509.43"/>
      <polygon points="1005.42 614.15 951.26 687.39 921.67 669.6 975.82 596.36 1005.42 614.15"/>
    </g>
    <g>
      <polygon points="951.44 455.86 981.03 473.64 926.63 547.23 897.03 529.44 951.44 455.86"/>
      <polygon points="916.76 560.57 862.6 633.81 833.01 616.02 887.16 542.78 916.76 560.57"/>
    </g>
    <g>
      <polygon points="995.83 482.52 1025.43 500.31 971.02 573.89 941.43 556.1 995.83 482.52"/>
      <polygon points="961.15 587.24 907 660.48 877.4 642.69 931.56 569.45 961.15 587.24"/>
    </g>
    <polygon points="329.59 456 299.99 473.79 418.42 633.96 448.01 616.17 329.59 456"/>
  </g>
</svg>
