<svg id="Layer_1" data-name="Layer 1" xmlns="http://www.w3.org/2000/svg" xmlns:xlink="http://www.w3.org/1999/xlink" viewBox="0 0 1281.04 770">
  <defs>
    <style>
      .cls-1 {
        fill: none;
      }

      .cls-2 {
        clip-path: url(#clip-path);
      }

      .cls-3 {
        clip-path: url(#clip-path-2);
      }

      .cls-4 {
        fill: #de0c41;
      }

      .cls-5 {
        fill: #fff;
      }

      .cls-6 {
        fill: #042d61;
      }

      .cls-7 {
        clip-path: url(#clip-path-3);
      }

      .cls-8 {
        fill: #012169;
      }

      .cls-9 {
        fill: #c8102e;
      }
    </style>
    <clipPath id="clip-path" transform="translate(0 0)">
      <polygon class="cls-1" points="1280.96 0 0.04 0 0.04 770 1280.96 0"/>
    </clipPath>
    <clipPath id="clip-path-2" transform="translate(0 0)">
      <polygon class="cls-1" points="0 0 1281 0 0 770 0 0"/>
    </clipPath>
    <clipPath id="clip-path-3" transform="translate(0 0)">
      <polygon class="cls-1" points="0.04 770 1280.96 770 1280.96 0 0.04 770"/>
    </clipPath>
  </defs>
  <g class="cls-2">
    <g class="cls-3">
      <rect class="cls-4" width="1281" height="60"/>
      <rect class="cls-5" y="59" width="1281" height="60"/>
      <rect class="cls-4" y="119" width="1281" height="60"/>
      <rect class="cls-5" y="179" width="1281" height="60"/>
      <rect class="cls-4" y="238" width="1281" height="60"/>
      <rect class="cls-5" y="298" width="1281" height="60"/>
      <rect class="cls-4" y="353" width="1281" height="60"/>
      <rect class="cls-5" y="412" width="1281" height="60"/>
      <rect class="cls-4" y="472" width="1281" height="60"/>
      <rect class="cls-5" y="531" width="1281" height="60"/>
      <rect class="cls-4" y="591" width="1281" height="60"/>
      <rect class="cls-5" y="651" width="1281" height="60"/>
      <rect class="cls-4" y="710" width="1281" height="60"/>
      <rect class="cls-6" width="556" height="412"/>
      <polygon class="cls-5" points="91.3 73.19 97.05 84.84 109.91 86.71 100.61 95.78 102.8 108.59 91.3 102.54 79.8 108.59 82 95.78 72.69 86.71 85.55 84.84 91.3 73.19"/>
      <polygon class="cls-5" points="184.59 73.19 190.34 84.84 203.2 86.71 193.9 95.78 196.09 108.59 184.59 102.54 173.09 108.59 175.29 95.78 165.99 86.71 178.84 84.84 184.59 73.19"/>
      <polygon class="cls-5" points="277.88 73.19 283.63 84.84 296.49 86.71 287.19 95.78 289.38 108.59 277.88 102.54 266.38 108.59 268.58 95.78 259.27 86.71 272.13 84.84 277.88 73.19"/>
      <polygon class="cls-5" points="371.17 73.19 376.92 84.84 389.78 86.71 380.48 95.78 382.67 108.59 371.17 102.54 359.67 108.59 361.87 95.78 352.56 86.71 365.42 84.84 371.17 73.19"/>
      <polygon class="cls-5" points="464.46 73.19 470.21 84.84 483.07 86.71 473.76 95.78 475.96 108.59 464.46 102.54 452.96 108.59 455.16 95.78 445.85 86.71 458.71 84.84 464.46 73.19"/>
      <polygon class="cls-5" points="51.64 35.29 57.39 46.94 70.25 48.81 60.95 57.88 63.14 70.68 51.64 64.64 40.14 70.68 42.34 57.88 33.04 48.81 45.89 46.94 51.64 35.29"/>
      <polygon class="cls-5" points="142.14 35.29 147.89 46.94 160.75 48.81 151.44 57.88 153.64 70.68 142.14 64.64 130.64 70.68 132.84 57.88 123.53 48.81 136.39 46.94 142.14 35.29"/>
      <polygon class="cls-5" points="232.63 35.29 238.38 46.94 251.24 48.81 241.94 57.88 244.13 70.68 232.63 64.64 221.13 70.68 223.33 57.88 214.03 48.81 226.88 46.94 232.63 35.29"/>
      <polygon class="cls-5" points="323.13 35.29 328.88 46.94 341.74 48.81 332.43 57.88 334.63 70.68 323.13 64.64 311.63 70.68 313.82 57.88 304.52 48.81 317.38 46.94 323.13 35.29"/>
      <polygon class="cls-5" points="413.62 35.29 419.37 46.94 432.23 48.81 422.93 57.88 425.12 70.68 413.62 64.64 402.12 70.68 404.32 57.88 395.02 48.81 407.87 46.94 413.62 35.29"/>
      <polygon class="cls-5" points="504.12 34.25 509.87 45.91 522.73 47.77 513.42 56.84 515.62 69.65 504.12 63.6 492.62 69.65 494.81 56.84 485.51 47.77 498.37 45.91 504.12 34.25"/>
      <polygon class="cls-5" points="91.3 150.04 97.05 161.69 109.91 163.56 100.61 172.62 102.8 185.43 91.3 179.38 79.8 185.43 82 172.62 72.69 163.56 85.55 161.69 91.3 150.04"/>
      <polygon class="cls-5" points="184.59 150.04 190.34 161.69 203.2 163.56 193.9 172.62 196.09 185.43 184.59 179.38 173.09 185.43 175.29 172.62 165.99 163.56 178.84 161.69 184.59 150.04"/>
      <polygon class="cls-5" points="277.88 150.04 283.63 161.69 296.49 163.56 287.19 172.62 289.38 185.43 277.88 179.38 266.38 185.43 268.58 172.62 259.27 163.56 272.13 161.69 277.88 150.04"/>
      <polygon class="cls-5" points="371.17 150.04 376.92 161.69 389.78 163.56 380.48 172.62 382.67 185.43 371.17 179.38 359.67 185.43 361.87 172.62 352.56 163.56 365.42 161.69 371.17 150.04"/>
      <polygon class="cls-5" points="464.46 150.04 470.21 161.69 483.07 163.56 473.76 172.62 475.96 185.43 464.46 179.38 452.96 185.43 455.16 172.62 445.85 163.56 458.71 161.69 464.46 150.04"/>
      <polygon class="cls-5" points="51.64 112.13 57.39 123.78 70.25 125.65 60.95 134.72 63.14 147.53 51.64 141.48 40.14 147.53 42.34 134.72 33.04 125.65 45.89 123.78 51.64 112.13"/>
      <polygon class="cls-5" points="142.14 112.13 147.89 123.78 160.75 125.65 151.44 134.72 153.64 147.53 142.14 141.48 130.64 147.53 132.84 134.72 123.53 125.65 136.39 123.78 142.14 112.13"/>
      <polygon class="cls-5" points="232.63 112.13 238.38 123.78 251.24 125.65 241.94 134.72 244.13 147.53 232.63 141.48 221.13 147.53 223.33 134.72 214.03 125.65 226.88 123.78 232.63 112.13"/>
      <polygon class="cls-5" points="323.13 112.13 328.88 123.78 341.74 125.65 332.43 134.72 334.63 147.53 323.13 141.48 311.63 147.53 313.82 134.72 304.52 125.65 317.38 123.78 323.13 112.13"/>
      <polygon class="cls-5" points="413.62 112.13 419.37 123.78 432.23 125.65 422.93 134.72 425.12 147.53 413.62 141.48 402.12 147.53 404.32 134.72 395.02 125.65 407.87 123.78 413.62 112.13"/>
      <polygon class="cls-5" points="504.12 111.1 509.87 122.75 522.73 124.62 513.42 133.69 515.62 146.49 504.12 140.44 492.62 146.49 494.81 133.69 485.51 124.62 498.37 122.75 504.12 111.1"/>
      <polygon class="cls-5" points="91.3 226.88 97.05 238.53 109.91 240.4 100.61 249.47 102.8 262.27 91.3 256.23 79.8 262.27 82 249.47 72.69 240.4 85.55 238.53 91.3 226.88"/>
      <polygon class="cls-5" points="184.59 226.88 190.34 238.53 203.2 240.4 193.9 249.47 196.09 262.27 184.59 256.23 173.09 262.27 175.29 249.47 165.99 240.4 178.84 238.53 184.59 226.88"/>
      <polygon class="cls-5" points="277.88 226.88 283.63 238.53 296.49 240.4 287.19 249.47 289.38 262.27 277.88 256.23 266.38 262.27 268.58 249.47 259.27 240.4 272.13 238.53 277.88 226.88"/>
      <polygon class="cls-5" points="371.17 226.88 376.92 238.53 389.78 240.4 380.48 249.47 382.67 262.27 371.17 256.23 359.67 262.27 361.87 249.47 352.56 240.4 365.42 238.53 371.17 226.88"/>
      <polygon class="cls-5" points="464.46 226.88 470.21 238.53 483.07 240.4 473.76 249.47 475.96 262.27 464.46 256.23 452.96 262.27 455.16 249.47 445.85 240.4 458.71 238.53 464.46 226.88"/>
      <polygon class="cls-5" points="51.64 188.97 57.39 200.63 70.25 202.5 60.95 211.56 63.14 224.37 51.64 218.32 40.14 224.37 42.34 211.56 33.04 202.5 45.89 200.63 51.64 188.97"/>
      <polygon class="cls-5" points="142.14 188.97 147.89 200.63 160.75 202.5 151.44 211.56 153.64 224.37 142.14 218.32 130.64 224.37 132.84 211.56 123.53 202.5 136.39 200.63 142.14 188.97"/>
      <polygon class="cls-5" points="232.63 188.97 238.38 200.63 251.24 202.5 241.94 211.56 244.13 224.37 232.63 218.32 221.13 224.37 223.33 211.56 214.03 202.5 226.88 200.63 232.63 188.97"/>
      <polygon class="cls-5" points="323.13 188.97 328.88 200.63 341.74 202.5 332.43 211.56 334.63 224.37 323.13 218.32 311.63 224.37 313.82 211.56 304.52 202.5 317.38 200.63 323.13 188.97"/>
      <polygon class="cls-5" points="413.62 188.97 419.37 200.63 432.23 202.5 422.93 211.56 425.12 224.37 413.62 218.32 402.12 224.37 404.32 211.56 395.02 202.5 407.87 200.63 413.62 188.97"/>
      <polygon class="cls-5" points="504.12 187.94 509.87 199.59 522.73 201.46 513.42 210.53 515.62 223.33 504.12 217.29 492.62 223.33 494.81 210.53 485.51 201.46 498.37 199.59 504.12 187.94"/>
      <polygon class="cls-5" points="91.3 303.72 97.05 315.37 109.91 317.24 100.61 326.31 102.8 339.12 91.3 333.07 79.8 339.12 82 326.31 72.69 317.24 85.55 315.37 91.3 303.72"/>
      <polygon class="cls-5" points="184.59 303.72 190.34 315.37 203.2 317.24 193.9 326.31 196.09 339.12 184.59 333.07 173.09 339.12 175.29 326.31 165.99 317.24 178.84 315.37 184.59 303.72"/>
      <polygon class="cls-5" points="277.88 303.72 283.63 315.37 296.49 317.24 287.19 326.31 289.38 339.12 277.88 333.07 266.38 339.12 268.58 326.31 259.27 317.24 272.13 315.37 277.88 303.72"/>
      <polygon class="cls-5" points="371.17 303.72 376.92 315.37 389.78 317.24 380.48 326.31 382.67 339.12 371.17 333.07 359.67 339.12 361.87 326.31 352.56 317.24 365.42 315.37 371.17 303.72"/>
      <polygon class="cls-5" points="464.46 303.72 470.21 315.37 483.07 317.24 473.76 326.31 475.96 339.12 464.46 333.07 452.96 339.12 455.16 326.31 445.85 317.24 458.71 315.37 464.46 303.72"/>
      <polygon class="cls-5" points="51.64 265.82 57.39 277.47 70.25 279.34 60.95 288.41 63.14 301.21 51.64 295.17 40.14 301.21 42.34 288.41 33.04 279.34 45.89 277.47 51.64 265.82"/>
      <polygon class="cls-5" points="142.14 265.82 147.89 277.47 160.75 279.34 151.44 288.41 153.64 301.21 142.14 295.17 130.64 301.21 132.84 288.41 123.53 279.34 136.39 277.47 142.14 265.82"/>
      <polygon class="cls-5" points="232.63 265.82 238.38 277.47 251.24 279.34 241.94 288.41 244.13 301.21 232.63 295.17 221.13 301.21 223.33 288.41 214.03 279.34 226.88 277.47 232.63 265.82"/>
      <polygon class="cls-5" points="323.13 265.82 328.88 277.47 341.74 279.34 332.43 288.41 334.63 301.21 323.13 295.17 311.63 301.21 313.82 288.41 304.52 279.34 317.38 277.47 323.13 265.82"/>
      <polygon class="cls-5" points="413.62 265.82 419.37 277.47 432.23 279.34 422.93 288.41 425.12 301.21 413.62 295.17 402.12 301.21 404.32 288.41 395.02 279.34 407.87 277.47 413.62 265.82"/>
      <polygon class="cls-5" points="504.12 264.78 509.87 276.44 522.73 278.3 513.42 287.37 515.62 300.18 504.12 294.13 492.62 300.18 494.81 287.37 485.51 278.3 498.37 276.44 504.12 264.78"/>
      <polygon class="cls-5" points="51.64 342.66 57.39 354.31 70.25 356.18 60.95 365.25 63.14 378.06 51.64 372.01 40.14 378.06 42.34 365.25 33.04 356.18 45.89 354.31 51.64 342.66"/>
      <polygon class="cls-5" points="142.14 342.66 147.89 354.31 160.75 356.18 151.44 365.25 153.64 378.06 142.14 372.01 130.64 378.06 132.84 365.25 123.53 356.18 136.39 354.31 142.14 342.66"/>
      <polygon class="cls-5" points="232.63 342.66 238.38 354.31 251.24 356.18 241.94 365.25 244.13 378.06 232.63 372.01 221.13 378.06 223.33 365.25 214.03 356.18 226.88 354.31 232.63 342.66"/>
      <polygon class="cls-5" points="323.13 342.66 328.88 354.31 341.74 356.18 332.43 365.25 334.63 378.06 323.13 372.01 311.63 378.06 313.82 365.25 304.52 356.18 317.38 354.31 323.13 342.66"/>
      <polygon class="cls-5" points="413.62 342.66 419.37 354.31 432.23 356.18 422.93 365.25 425.12 378.06 413.62 372.01 402.12 378.06 404.32 365.25 395.02 356.18 407.87 354.31 413.62 342.66"/>
      <polygon class="cls-5" points="504.12 341.63 509.87 353.28 522.73 355.15 513.42 364.21 515.62 377.02 504.12 370.98 492.62 377.02 494.81 364.21 485.51 355.15 498.37 353.28 504.12 341.63"/>
    </g>
  </g>
  <g class="cls-7">
    <g>
      <rect class="cls-8" x="0.04" width="1281" height="770"/>
      <polygon class="cls-5" points="1170.42 0 847.11 183.11 812.27 202.84 749.03 238.64 746.66 239.98 717.21 256.67 706.13 262.94 702.22 265.17 665.03 286.21 663.71 286.97 631.11 305.43 578.13 335.43 533.35 360.8 433.79 417.18 443.27 434.49 447.49 442.19 456.94 459.43 466.12 476.18 469.13 481.67 485.39 511.35 533.35 484.2 543.8 478.29 577.08 459.43 578.13 458.83 636.63 425.69 669.17 407.27 706.13 386.33 707.67 385.46 746.66 363.38 817.73 323.13 848.99 305.43 852.58 303.4 901.91 275.45 935.09 256.67 985.9 227.9 1281.04 60.74 1281.04 0 1170.42 0"/>
      <polygon class="cls-9" points="1208.62 0 909.05 173.74 874.69 193.65 850.55 207.66 825.55 222.16 816.04 227.67 809.12 231.67 808.73 231.9 771.28 253.63 769.17 254.85 767.75 255.67 766.2 256.56 766 256.67 748.49 266.84 746.67 267.9 731.17 276.88 728.24 278.58 706.13 291.4 681.95 305.43 653.04 322.19 642.99 328.02 611.67 346.18 598.83 353.64 578.13 365.64 533.35 391.63 532.36 392.19 509.34 405.54 510.16 407.21 510.59 408.1 523.04 433.42 525.38 438.19 533.29 433.6 533.35 433.57 548.8 424.6 575.3 409.25 578.13 407.6 582.61 405.01 598.07 396.04 610.91 388.6 642.22 370.43 652.28 364.6 706.13 333.38 729.25 319.96 746.67 309.87 754.3 305.43 767.23 297.94 768.41 297.25 770.52 296.02 801.34 278.15 807.96 274.31 808.36 274.08 818.67 268.1 838.39 256.67 844.12 253.35 875.71 235.03 886.23 228.93 895.75 223.41 910.05 215.11 926.92 205.34 1280.96 0 1208.62 0"/>
      <polygon class="cls-5" points="578.13 285.87 546.92 286 546.91 286 533.35 286.69 463.5 288 463.48 288 463.8 305.47 464.84 362.22 533.41 401.69 534.84 402.52 578.19 427.48 581.62 429.46 618.83 450.88 633.72 459.46 645.44 466.21 706.18 501.19 727.32 513.36 746.71 524.51 808.8 560.27 868.04 594.37 906.7 616.62 964.2 649.73 968.38 652.14 1004.82 673.11 1087.63 720.8 1133.08 746.97 1134.87 748 1173.09 770 1281.04 770 1281.04 682.93 1219.57 647.55 1181.57 625.67 1180.02 624.77 1136.67 599.84 1132.11 597.21 1119.2 589.77 1084.87 570 1082.11 568.4 1008.4 525.99 986.42 513.34 967.79 502.62 892.8 459.44 775.3 391.79 746.66 375.29 712.98 355.89 710 354.18 706.13 351.95 664.68 328.1 625.34 305.44 590.95 285.63 578.13 285.87"/>
      <polygon class="cls-9" points="673.77 351 660.96 350 594.93 350 622.91 368.35 660.94 391.55 703.25 417.37 706.13 419.13 721.22 428.33 746.66 443.86 764.22 454.56 772.2 459.44 798.95 475.76 824.22 491.19 824.47 491.35 860.5 513.34 862.5 514.55 869.63 518.89 955.98 571.6 984.99 589.29 1003.57 600.63 1019.33 610.25 1029.82 616.66 1041.41 623.71 1076.21 644.97 1082.54 648.82 1104.24 662.06 1115.62 669 1116.06 669.26 1123.34 673.72 1157.3 694.43 1159.63 695.86 1160.92 696.65 1175.15 705.35 1183.58 710.48 1202.75 722.18 1228.22 737.73 1281.04 769.95 1281.04 720.47 1254.03 703.98 1227.37 687.72 1203.03 672.86 1199.79 670.88 1182.71 660.47 1180.7 659.24 1161.41 647.45 1161.2 647.33 1159.48 646.29 1157.92 645.35 1155.6 643.91 1114.35 618.74 1113.92 618.47 1106.29 613.84 1095.8 607.43 1068.27 590.63 1041.67 574.4 1037.28 571.72 1003.83 551.29 950.93 519.02 941.62 513.34 865.74 467.04 862.53 465.08 853.27 459.44 839.74 451.18 824.24 441.71 805.03 429.99 762.47 404.02 746.66 394.38 706.13 369.64 704.22 368.48 703.27 367.91 673.78 351 673.77 351"/>
      <polygon class="cls-5" points="701.86 306.81 690.87 313.1 655.9 333.13 654.77 333.76 593.29 368.99 559.09 388.56 520.25 410.81 518.63 411.75 477.64 435.2 402.95 477.99 370.1 496.8 366.32 498.96 314.46 528.66 279.61 548.62 226.19 579.2 0.04 708.71 0.04 770 114.81 770 375.28 620.86 411.89 599.89 478.36 561.84 480.85 560.41 511.81 542.67 523.45 536.01 527.57 533.65 566.64 511.29 568.03 510.48 602.3 490.86 657.98 458.98 705.05 432.01 809.7 372.1 799.14 354.8 794.45 347.1 783.92 329.86 773.72 313.12 770.37 307.63 752.25 277.95 701.86 306.81"/>
      <polygon class="cls-9" points="698.49 385.97 674.3 400.13 673.26 400.75 626.2 428.33 604.46 441.07 590.97 448.99 558.06 468.26 547.49 474.45 517.13 492.25 491.71 507.14 468.49 520.75 465.41 522.54 449.12 532.09 447.21 533.21 428.8 544.01 428.6 544.12 426.96 545.06 425.48 545.93 423.26 547.25 383.92 570.31 383.51 570.55 376.24 574.8 366.23 580.66 339.98 596.05 314.61 610.91 278.51 632.05 43.11 770 0.04 770 0.04 752.02 258.65 600.49 276.36 590.1 291.4 581.29 301.4 575.43 312.45 568.96 345.64 549.51 351.67 545.97 372.39 533.85 383.22 527.5 383.64 527.25 390.59 523.17 422.98 504.21 425.19 502.9 426.43 502.17 440.01 494.22 448.04 489.5 466.33 478.79 490.62 464.56 547.21 431.39 557.78 425.21 590.68 405.92 604.17 398.02 620.41 388.5 625.11 385.75 628.09 384 655.93 367.71 672.17 358.18 672.23 358.14 680.54 353.27 683.16 358.05 697.09 383.42 697.57 384.29 698.49 385.97"/>
      <polygon class="cls-5" points="0.04 0 0.04 68.78 240.71 205.26 278.43 226.65 331.35 256.67 346.88 265.48 349.44 266.94 381.35 285.02 393.33 291.81 397.57 294.22 417.33 305.43 437.83 317.06 439.28 317.87 474.56 337.89 524.16 366 531.92 370.4 533.34 371.21 551.14 381.3 578.13 396.6 580.42 397.9 587.73 402.05 633.02 427.74 688.22 459.04 698.12 440.64 702.54 432.44 706.13 425.77 712.41 414.12 722.02 396.3 725.15 390.45 736.68 369.04 742.15 358.88 706.13 338.45 701.71 335.94 690.25 329.44 678.92 323.04 665.11 315.19 647.89 305.43 642.88 302.59 641.74 301.94 639.5 300.67 578.38 266.02 578.13 265.88 561.89 256.67 543.17 246.05 533.34 240.48 503.13 223.35 501.48 222.4 459.25 198.47 382.31 154.84 348.47 135.63 344.58 133.43 291.15 103.14 255.25 82.77 200.22 51.56 109.3 0 0.04 0"/>
      <polygon class="cls-9" points="0.04 44.15 196.5 152.97 234.12 173.8 260.56 188.44 287.92 203.59 298.33 209.38 305.9 213.57 306.33 213.81 347.33 236.51 349.65 237.8 351.2 238.65 352.88 239.6 353.1 239.72 372.3 250.34 374.3 251.44 383.71 256.68 391.25 260.86 394.46 262.63 418.67 276.03 445.14 290.69 471.76 305.44 476.79 308.21 487.79 314.32 522.08 333.32 533.34 339.56 536.15 341.1 552.32 350.06 558.8 353.65 578.13 364.35 579.26 364.99 607.86 380.81 608.93 381.42 616.28 385.49 634.13 395.38 635.14 393.68 635.67 392.81 651.02 367.19 652.71 364.35 653.89 362.37 645.25 357.57 645.19 357.54 628.25 348.15 618.03 342.5 599.27 332.08 596.15 330.38 591.57 327.82 591.25 327.65 578.13 320.38 574.34 318.29 560.27 310.49 551.14 305.44 533.34 295.58 525.99 291.51 514.98 285.4 463.11 256.68 456 252.75 430.69 238.72 411.63 228.16 403.26 223.53 389.13 215.69 387.82 214.99 385.51 213.71 351.77 195.01 344.51 191 344.08 190.75 332.8 184.5 311.21 172.53 304.94 169.06 270.35 149.91 258.83 143.53 248.41 137.75 232.75 129.06 214.28 118.84 0.04 0.17 0.04 44.15"/>
      <rect class="cls-5" x="0.04" y="257" width="1281" height="257"/>
      <rect class="cls-5" x="533.04" width="213" height="770"/>
      <rect class="cls-9" x="578.04" width="128" height="770"/>
      <rect class="cls-9" x="0.04" y="305" width="1281" height="154"/>
    </g>
  </g>
</svg>
