<?xml version="1.0" encoding="UTF-8"?>
<svg width="199px" height="150px" viewBox="0 0 199 150" version="1.1" xmlns="http://www.w3.org/2000/svg" xmlns:xlink="http://www.w3.org/1999/xlink">
    <title>zumiface_sweat</title>
    <defs>
        <polygon id="path-1" points="0 0.000190677966 198 0.000190677966 198 150 0 150"></polygon>
    </defs>
    <g id="Landing-Page" stroke="none" stroke-width="1" fill="none" fill-rule="evenodd">
        <g id="Desktop-HD" transform="translate(-621.000000, -196.000000)">
            <g id="zumiface_sweat" transform="translate(621.000000, 196.000000)">
                <g id="zumiface_neutral">
                    <g id="Group-3" transform="translate(0.500000, 0.000000)">
                        <mask id="mask-2" fill="white">
                            <use xlink:href="#path-1"></use>
                        </mask>
                        <g id="Clip-2"></g>
                        <path d="M194.509615,26.3150212 C193.119808,17.7942585 186.839654,10.8993432 178.479231,8.79362288 C163.654615,5.05824153 136.630154,0.000190677966 99,0.000190677966 C61.2778269,0.000190677966 34.2133846,5.08302966 19.4116154,8.82095339 C11.0810192,10.9247669 4.78563462,17.7701059 3.39519231,26.2616314 C1.73757692,36.3790042 0,52.3826059 0,75.0001907 C0,97.6826059 1.74773077,113.713538 3.40915385,123.826462 C4.79832692,132.283665 11.0454808,139.123284 19.3373654,141.243623 C33.9309808,144.974555 60.69525,150.000191 99,150.000191 C137.166404,150.000191 163.875462,145.011419 178.503346,141.284301 C186.805385,139.169047 193.060154,132.31036 194.437904,123.842352 C196.142481,113.363326 198,96.8588771 198,74.6823941 C198,52.8154449 196.194519,36.6446822 194.509615,26.3150212" id="Fill-1" fill="#000000" mask="url(#mask-2)"></path>
                    </g>
                    <g id="Group-20" transform="translate(29.500000, 41.000000)">
                        <path d="M45.3227067,28.2010273 C45.3227067,28.3925727 45.3214332,42.7483 45.3182583,42.9392091 C45.0679982,57.8479364 35.0910655,69.8408455 22.8204825,69.8408455 C10.5307964,69.8408455 0.541765022,57.8103909 0.322078924,42.8679364 C0.319531839,42.7012091 0.318258296,28.3690273 0.318258296,28.2010273 C0.318258296,13.0263 10.3932538,0.724754545 22.8204825,0.724754545 C35.248348,0.724754545 45.3227067,13.0263 45.3227067,28.2010273" id="Fill-4" fill="#FFFFFF"></path>
                        <path d="M141.681614,28.2010273 C141.681614,28.3925727 141.679704,42.7483 141.67652,42.9392091 C141.426906,57.8479364 131.449973,69.8408455 119.17939,69.8408455 C106.889067,69.8408455 96.9006726,57.8103909 96.6809865,42.8679364 C96.6784395,42.7012091 96.6771659,28.3690273 96.6771659,28.2010273 C96.6771659,13.0263 106.752161,0.724754545 119.17939,0.724754545 C131.607256,0.724754545 141.681614,13.0263 141.681614,28.2010273" id="Fill-6" fill="#FFFFFF"></path>
                        <path d="M2.13757758,0.194854545 C2.13757758,0.194854545 -0.178996413,8.23403636 4.33889596,12.8954 L12.3284655,4.44703636 C12.3284655,4.44703636 5.47999013,5.63894545 2.13757758,0.194854545" id="Fill-8" fill="#FFFFFF"></path>
                        <path d="M139.477176,0.194854545 C139.477176,0.194854545 141.79375,8.23403636 137.275857,12.8954 L129.286288,4.44703636 C129.286288,4.44703636 136.1354,5.63894545 139.477176,0.194854545" id="Fill-10" fill="#FFFFFF"></path>
                        <path d="M48.29853,38.0177636 C48.29853,51.3769455 39.082539,62.2072182 27.7136242,62.2072182 C16.3447094,62.2072182 7.12871839,51.3769455 7.12871839,38.0177636 C7.12871839,24.6585818 16.3447094,13.8283091 27.7136242,13.8283091 C39.082539,13.8283091 48.29853,24.6585818 48.29853,38.0177636" id="Fill-12" fill="#000000"></path>
                        <path d="M135.822554,38.0177636 C135.822554,51.3769455 126.605926,62.2072182 115.237648,62.2072182 C103.868734,62.2072182 94.6527426,51.3769455 94.6527426,38.0177636 C94.6527426,24.6585818 103.868734,13.8283091 115.237648,13.8283091 C126.605926,13.8283091 135.822554,24.6585818 135.822554,38.0177636" id="Fill-14" fill="#000000"></path>
                        <path d="M33.238061,21.5102364 C34.0391193,23.7597818 29.1977471,25.2399636 24.283783,26.9880545 C19.3704556,28.7361455 15.3517919,30.6554182 14.5500969,28.4058727 C13.7490386,26.1563273 16.4686888,20.5900545 21.3820161,18.8419636 C26.2959803,17.0938727 32.4370027,19.2606909 33.238061,21.5102364" id="Fill-16" fill="#FFFFFF"></path>
                        <path d="M120.854099,21.5102364 C121.655157,23.7597818 116.813148,25.2399636 111.899184,26.9880545 C106.986493,28.7361455 102.967193,30.6554182 102.165498,28.4058727 C101.365076,26.1563273 104.08409,20.5900545 108.998054,18.8419636 C113.911381,17.0938727 120.052404,19.2606909 120.854099,21.5102364" id="Fill-18" fill="#FFFFFF"></path>
                    </g>
                </g>
                <path d="M186,31 L190.257041,48.7219263 C190.667556,49.6179341 190.926778,50.6532711 190.986665,51.7631666 L191,51.8205128 L190.989556,51.8200497 C190.996483,51.9652495 191,52.1117007 191,52.2592593 C191,55.9820676 188.761424,59 186,59 C183.238576,59 181,55.9820676 181,52.2592593 C181,52.1117007 181.003517,51.9652495 181.010444,51.8200497 L181,51.8205128 L181.013068,51.7681511 C181.072534,50.6547175 181.332602,49.6161908 181.744794,48.7179236 L186,31 Z" id="Sweat-Drop" fill="#FFFFFF"></path>
            </g>
        </g>
    </g>
</svg>